<svg width="295" height="90" viewBox="0 0 295 90" fill="none" xmlns="http://www.w3.org/2000/svg">
<g clip-path="url(#clip0_503_777)">
<path d="M0 20C0 8.9543 8.95431 0 20 0H275C286.046 0 295 8.9543 295 20V70C295 81.0457 286.046 90 275 90H20C8.9543 90 0 81.0457 0 70V20Z" fill="url(#paint0_linear_503_777)"/>
<path d="M90.1665 35.5455L94.3853 48.8068H94.5472L98.7745 35.5455H102.865L96.8484 53H92.0927L86.0671 35.5455H90.1665ZM104.898 53V39.9091H108.529V53H104.898ZM106.722 38.2216C106.182 38.2216 105.719 38.0426 105.333 37.6847C104.952 37.321 104.762 36.8864 104.762 36.3807C104.762 35.8807 104.952 35.4517 105.333 35.0938C105.719 34.7301 106.182 34.5483 106.722 34.5483C107.262 34.5483 107.722 34.7301 108.103 35.0938C108.489 35.4517 108.682 35.8807 108.682 36.3807C108.682 36.8864 108.489 37.321 108.103 37.6847C107.722 38.0426 107.262 38.2216 106.722 38.2216ZM117.403 53.2557C116.056 53.2557 114.897 52.983 113.926 52.4375C112.96 51.8864 112.216 51.108 111.693 50.1023C111.17 49.0909 110.909 47.8949 110.909 46.5142C110.909 45.1676 111.17 43.9858 111.693 42.9688C112.216 41.9517 112.951 41.1591 113.9 40.5909C114.855 40.0227 115.974 39.7386 117.258 39.7386C118.122 39.7386 118.926 39.8778 119.67 40.1562C120.42 40.429 121.074 40.8409 121.63 41.392C122.193 41.9432 122.63 42.6364 122.943 43.4716C123.255 44.3011 123.412 45.2727 123.412 46.3864V47.3835H112.358V45.1335H119.994C119.994 44.6108 119.88 44.1477 119.653 43.7443C119.426 43.3409 119.11 43.0256 118.707 42.7983C118.309 42.5653 117.846 42.4489 117.318 42.4489C116.767 42.4489 116.278 42.5767 115.852 42.8324C115.431 43.0824 115.102 43.4205 114.863 43.8466C114.625 44.267 114.502 44.7358 114.497 45.2528V47.392C114.497 48.0398 114.616 48.5994 114.855 49.071C115.099 49.5426 115.443 49.9062 115.886 50.1619C116.329 50.4176 116.855 50.5455 117.463 50.5455C117.866 50.5455 118.235 50.4886 118.571 50.375C118.906 50.2614 119.193 50.0909 119.431 49.8636C119.67 49.6364 119.852 49.358 119.977 49.0284L123.335 49.25C123.164 50.0568 122.815 50.7614 122.287 51.3636C121.764 51.9602 121.088 52.4261 120.258 52.7614C119.434 53.0909 118.483 53.2557 117.403 53.2557ZM128.27 53L124.707 39.9091H128.38L130.409 48.7045H130.528L132.642 39.9091H136.247L138.395 48.6534H138.505L140.5 39.9091H144.164L140.61 53H136.767L134.517 44.767H134.355L132.105 53H128.27ZM151.724 53V35.5455H158.61C159.934 35.5455 161.062 35.7983 161.994 36.304C162.926 36.804 163.636 37.5 164.125 38.392C164.619 39.2784 164.866 40.3011 164.866 41.4602C164.866 42.6193 164.616 43.642 164.116 44.5284C163.616 45.4148 162.892 46.1051 161.943 46.5994C161 47.0937 159.858 47.3409 158.517 47.3409H154.127V44.3835H157.92C158.63 44.3835 159.216 44.2614 159.676 44.017C160.142 43.767 160.488 43.4233 160.716 42.9858C160.949 42.5426 161.065 42.0341 161.065 41.4602C161.065 40.8807 160.949 40.375 160.716 39.9432C160.488 39.5057 160.142 39.1676 159.676 38.929C159.21 38.6847 158.619 38.5625 157.903 38.5625H155.414V53H151.724ZM167.195 53V39.9091H170.715V42.1932H170.851C171.09 41.3807 171.49 40.767 172.053 40.3523C172.615 39.9318 173.263 39.7216 173.996 39.7216C174.178 39.7216 174.374 39.733 174.584 39.7557C174.794 39.7784 174.979 39.8097 175.138 39.8494V43.071C174.968 43.0199 174.732 42.9744 174.431 42.9347C174.13 42.8949 173.854 42.875 173.604 42.875C173.07 42.875 172.593 42.9915 172.172 43.2244C171.757 43.4517 171.428 43.7699 171.184 44.179C170.945 44.5881 170.826 45.0597 170.826 45.5938V53H167.195ZM182.321 53.2557C180.997 53.2557 179.852 52.9744 178.886 52.4119C177.926 51.8437 177.184 51.054 176.662 50.0426C176.139 49.0256 175.877 47.8466 175.877 46.5057C175.877 45.1534 176.139 43.9716 176.662 42.9602C177.184 41.9432 177.926 41.1534 178.886 40.5909C179.852 40.0227 180.997 39.7386 182.321 39.7386C183.645 39.7386 184.787 40.0227 185.747 40.5909C186.713 41.1534 187.457 41.9432 187.98 42.9602C188.502 43.9716 188.764 45.1534 188.764 46.5057C188.764 47.8466 188.502 49.0256 187.98 50.0426C187.457 51.054 186.713 51.8437 185.747 52.4119C184.787 52.9744 183.645 53.2557 182.321 53.2557ZM182.338 50.4432C182.94 50.4432 183.443 50.2727 183.846 49.9318C184.25 49.5852 184.554 49.1136 184.758 48.517C184.968 47.9205 185.074 47.2415 185.074 46.4801C185.074 45.7188 184.968 45.0398 184.758 44.4432C184.554 43.8466 184.25 43.375 183.846 43.0284C183.443 42.6818 182.94 42.5085 182.338 42.5085C181.73 42.5085 181.218 42.6818 180.804 43.0284C180.395 43.375 180.085 43.8466 179.875 44.4432C179.67 45.0398 179.568 45.7188 179.568 46.4801C179.568 47.2415 179.67 47.9205 179.875 48.517C180.085 49.1136 180.395 49.5852 180.804 49.9318C181.218 50.2727 181.73 50.4432 182.338 50.4432ZM198.088 39.9091V42.6364H190.204V39.9091H198.088ZM191.994 36.7727H195.625V48.9773C195.625 49.3125 195.676 49.5739 195.778 49.7614C195.88 49.9432 196.022 50.071 196.204 50.1449C196.392 50.2187 196.608 50.2557 196.852 50.2557C197.022 50.2557 197.193 50.2415 197.363 50.2131C197.534 50.179 197.664 50.1534 197.755 50.1364L198.326 52.8381C198.145 52.8949 197.889 52.9602 197.559 53.0341C197.23 53.1136 196.829 53.1619 196.358 53.179C195.483 53.2131 194.716 53.0966 194.056 52.8295C193.403 52.5625 192.895 52.1477 192.531 51.5852C192.167 51.0227 191.988 50.3125 191.994 49.4545V36.7727ZM206.227 53.2557C204.903 53.2557 203.758 52.9744 202.792 52.4119C201.832 51.8437 201.091 51.054 200.568 50.0426C200.045 49.0256 199.784 47.8466 199.784 46.5057C199.784 45.1534 200.045 43.9716 200.568 42.9602C201.091 41.9432 201.832 41.1534 202.792 40.5909C203.758 40.0227 204.903 39.7386 206.227 39.7386C207.551 39.7386 208.693 40.0227 209.653 40.5909C210.619 41.1534 211.363 41.9432 211.886 42.9602C212.409 43.9716 212.67 45.1534 212.67 46.5057C212.67 47.8466 212.409 49.0256 211.886 50.0426C211.363 51.054 210.619 51.8437 209.653 52.4119C208.693 52.9744 207.551 53.2557 206.227 53.2557ZM206.244 50.4432C206.846 50.4432 207.349 50.2727 207.752 49.9318C208.156 49.5852 208.46 49.1136 208.664 48.517C208.875 47.9205 208.98 47.2415 208.98 46.4801C208.98 45.7188 208.875 45.0398 208.664 44.4432C208.46 43.8466 208.156 43.375 207.752 43.0284C207.349 42.6818 206.846 42.5085 206.244 42.5085C205.636 42.5085 205.125 42.6818 204.71 43.0284C204.301 43.375 203.991 43.8466 203.781 44.4432C203.576 45.0398 203.474 45.7188 203.474 46.4801C203.474 47.2415 203.576 47.9205 203.781 48.517C203.991 49.1136 204.301 49.5852 204.71 49.9318C205.125 50.2727 205.636 50.4432 206.244 50.4432ZM221.994 39.9091V42.6364H214.11V39.9091H221.994ZM215.9 36.7727H219.531V48.9773C219.531 49.3125 219.582 49.5739 219.684 49.7614C219.787 49.9432 219.929 50.071 220.11 50.1449C220.298 50.2187 220.514 50.2557 220.758 50.2557C220.929 50.2557 221.099 50.2415 221.27 50.2131C221.44 50.179 221.571 50.1534 221.662 50.1364L222.233 52.8381C222.051 52.8949 221.795 52.9602 221.466 53.0341C221.136 53.1136 220.735 53.1619 220.264 53.179C219.389 53.2131 218.622 53.0966 217.963 52.8295C217.309 52.5625 216.801 52.1477 216.437 51.5852C216.074 51.0227 215.895 50.3125 215.9 49.4545V36.7727ZM226.6 57.9091C226.14 57.9091 225.708 57.8722 225.305 57.7983C224.907 57.7301 224.578 57.642 224.316 57.5341L225.135 54.8239C225.561 54.9545 225.944 55.0256 226.285 55.0369C226.632 55.0483 226.93 54.9688 227.18 54.7983C227.436 54.6278 227.643 54.3381 227.802 53.929L228.015 53.375L223.319 39.9091H227.137L229.848 49.5227H229.984L232.72 39.9091H236.564L231.475 54.4148C231.231 55.1193 230.899 55.733 230.478 56.2557C230.064 56.7841 229.538 57.1903 228.902 57.4744C228.265 57.7642 227.498 57.9091 226.6 57.9091ZM238.422 57.9091V39.9091H242.001V42.108H242.163C242.322 41.7557 242.552 41.3977 242.853 41.0341C243.16 40.6648 243.558 40.358 244.047 40.1136C244.541 39.8636 245.154 39.7386 245.887 39.7386C246.842 39.7386 247.723 39.9886 248.529 40.4886C249.336 40.983 249.981 41.7301 250.464 42.7301C250.947 43.7244 251.189 44.9716 251.189 46.4716C251.189 47.9318 250.953 49.1648 250.481 50.1705C250.015 51.1705 249.379 51.929 248.572 52.446C247.771 52.9574 246.873 53.2131 245.879 53.2131C245.174 53.2131 244.575 53.0966 244.081 52.8636C243.592 52.6307 243.191 52.3381 242.879 51.9858C242.566 51.6278 242.328 51.267 242.163 50.9034H242.052V57.9091H238.422ZM241.975 46.4545C241.975 47.233 242.083 47.9119 242.299 48.4915C242.515 49.071 242.828 49.5227 243.237 49.8466C243.646 50.1648 244.143 50.3239 244.728 50.3239C245.319 50.3239 245.819 50.1619 246.228 49.8381C246.637 49.5085 246.947 49.054 247.157 48.4744C247.373 47.8892 247.481 47.2159 247.481 46.4545C247.481 45.6989 247.376 45.0341 247.166 44.4602C246.956 43.8864 246.646 43.4375 246.237 43.1136C245.828 42.7898 245.325 42.6278 244.728 42.6278C244.137 42.6278 243.637 42.7841 243.228 43.0966C242.825 43.4091 242.515 43.8523 242.299 44.4261C242.083 45 241.975 45.6761 241.975 46.4545ZM259.575 53.2557C258.228 53.2557 257.069 52.983 256.098 52.4375C255.132 51.8864 254.387 51.108 253.865 50.1023C253.342 49.0909 253.081 47.8949 253.081 46.5142C253.081 45.1676 253.342 43.9858 253.865 42.9688C254.387 41.9517 255.123 41.1591 256.072 40.5909C257.027 40.0227 258.146 39.7386 259.43 39.7386C260.294 39.7386 261.098 39.8778 261.842 40.1562C262.592 40.429 263.245 40.8409 263.802 41.392C264.365 41.9432 264.802 42.6364 265.115 43.4716C265.427 44.3011 265.583 45.2727 265.583 46.3864V47.3835H254.529V45.1335H262.166C262.166 44.6108 262.052 44.1477 261.825 43.7443C261.598 43.3409 261.282 43.0256 260.879 42.7983C260.481 42.5653 260.018 42.4489 259.49 42.4489C258.939 42.4489 258.45 42.5767 258.024 42.8324C257.603 43.0824 257.274 43.4205 257.035 43.8466C256.797 44.267 256.674 44.7358 256.669 45.2528V47.392C256.669 48.0398 256.788 48.5994 257.027 49.071C257.271 49.5426 257.615 49.9062 258.058 50.1619C258.501 50.4176 259.027 50.5455 259.635 50.5455C260.038 50.5455 260.407 50.4886 260.743 50.375C261.078 50.2614 261.365 50.0909 261.603 49.8636C261.842 49.6364 262.024 49.358 262.149 49.0284L265.507 49.25C265.336 50.0568 264.987 50.7614 264.458 51.3636C263.936 51.9602 263.26 52.4261 262.43 52.7614C261.606 53.0909 260.654 53.2557 259.575 53.2557Z" fill="#6A6A6A"/>
<path d="M46 44.5C46 41.9804 47.0009 39.5641 48.7825 37.7825C50.5641 36.0009 52.9804 35 55.5 35C58.0196 35 60.4359 36.0009 62.2175 37.7825C63.9991 39.5641 65 41.9804 65 44.5C65 47.0196 63.9991 49.4359 62.2175 51.2175C60.4359 52.9991 58.0196 54 55.5 54C52.9804 54 50.5641 52.9991 48.7825 51.2175C47.0009 49.4359 46 47.0196 46 44.5V44.5Z" fill="#1ABCFE"/>
<path d="M27 63.5C27 60.9804 28.0009 58.5641 29.7825 56.7825C31.5641 55.0009 33.9804 54 36.5 54H46V63.5C46 66.0196 44.9991 68.4359 43.2175 70.2175C41.4359 71.9991 39.0196 73 36.5 73C33.9804 73 31.5641 71.9991 29.7825 70.2175C28.0009 68.4359 27 66.0196 27 63.5V63.5Z" fill="#0ACF83"/>
<path d="M46 16V35H55.5C58.0196 35 60.4359 33.9991 62.2175 32.2175C63.9991 30.4359 65 28.0196 65 25.5C65 22.9804 63.9991 20.5641 62.2175 18.7825C60.4359 17.0009 58.0196 16 55.5 16H46Z" fill="#FF7262"/>
<path d="M27 25.5C27 28.0196 28.0009 30.4359 29.7825 32.2175C31.5641 33.9991 33.9804 35 36.5 35H46V16H36.5C33.9804 16 31.5641 17.0009 29.7825 18.7825C28.0009 20.5641 27 22.9804 27 25.5V25.5Z" fill="#F24E1E"/>
<path d="M27 44.5C27 47.0196 28.0009 49.4359 29.7825 51.2175C31.5641 52.9991 33.9804 54 36.5 54H46V35H36.5C33.9804 35 31.5641 36.0009 29.7825 37.7825C28.0009 39.5641 27 41.9804 27 44.5V44.5Z" fill="#A259FF"/>
</g>
<defs>
<linearGradient id="paint0_linear_503_777" x1="147.5" y1="0" x2="147.5" y2="90" gradientUnits="userSpaceOnUse">
<stop stop-color="white"/>
<stop offset="1" stop-color="#B7B7B7"/>
</linearGradient>
<clipPath id="clip0_503_777">
<rect width="295" height="90" fill="white"/>
</clipPath>
</defs>
</svg>
