<svg width="375" height="125" viewBox="0 0 375 125" fill="none" xmlns="http://www.w3.org/2000/svg">
<g clip-path="url(#clip0_503_767)">
<path d="M0 20C0 8.95431 8.95431 0 20 0H355C366.046 0 375 8.95431 375 20V105C375 116.046 366.046 125 355 125H20C8.95431 125 0 116.046 0 105V20Z" fill="url(#paint0_linear_503_767)"/>
<path d="M104.555 50.7273L110.18 68.4091H110.396L116.033 50.7273H121.487L113.464 74H107.124L99.0895 50.7273H104.555ZM124.197 74V56.5455H129.038V74H124.197ZM126.629 54.2955C125.91 54.2955 125.292 54.0568 124.777 53.5795C124.269 53.0947 124.016 52.5152 124.016 51.8409C124.016 51.1742 124.269 50.6023 124.777 50.125C125.292 49.6402 125.91 49.3977 126.629 49.3977C127.349 49.3977 127.963 49.6402 128.47 50.125C128.985 50.6023 129.243 51.1742 129.243 51.8409C129.243 52.5152 128.985 53.0947 128.47 53.5795C127.963 54.0568 127.349 54.2955 126.629 54.2955ZM140.871 74.3409C139.075 74.3409 137.53 73.9773 136.234 73.25C134.946 72.5152 133.954 71.4773 133.257 70.1364C132.56 68.7879 132.212 67.1932 132.212 65.3523C132.212 63.5568 132.56 61.9811 133.257 60.625C133.954 59.2689 134.935 58.2121 136.2 57.4545C137.473 56.697 138.965 56.3182 140.678 56.3182C141.829 56.3182 142.901 56.5038 143.893 56.875C144.893 57.2386 145.765 57.7879 146.507 58.5227C147.257 59.2576 147.84 60.1818 148.257 61.2955C148.674 62.4015 148.882 63.697 148.882 65.1818V66.5114H134.143V63.5114H144.325C144.325 62.8144 144.174 62.197 143.871 61.6591C143.568 61.1212 143.147 60.7008 142.609 60.3977C142.079 60.0871 141.462 59.9318 140.757 59.9318C140.022 59.9318 139.371 60.1023 138.803 60.4432C138.242 60.7765 137.803 61.2273 137.484 61.7955C137.166 62.3561 137.003 62.9811 136.996 63.6705V66.5227C136.996 67.3864 137.155 68.1326 137.473 68.7614C137.799 69.3902 138.257 69.875 138.848 70.2159C139.439 70.5568 140.14 70.7273 140.95 70.7273C141.488 70.7273 141.981 70.6515 142.428 70.5C142.875 70.3485 143.257 70.1212 143.575 69.8182C143.893 69.5152 144.136 69.1439 144.303 68.7045L148.78 69C148.553 70.0758 148.087 71.0152 147.382 71.8182C146.685 72.6136 145.784 73.2348 144.678 73.6818C143.579 74.1212 142.31 74.3409 140.871 74.3409ZM155.359 74L150.609 56.5455H155.507L158.212 68.2727H158.371L161.189 56.5455H165.996L168.859 68.2045H169.007L171.666 56.5455H176.553L171.814 74H166.689L163.689 63.0227H163.473L160.473 74H155.359ZM186.632 74V50.7273H195.814C197.579 50.7273 199.083 51.0644 200.325 51.7386C201.568 52.4053 202.515 53.3333 203.166 54.5227C203.825 55.7045 204.155 57.0682 204.155 58.6136C204.155 60.1591 203.821 61.5227 203.155 62.7045C202.488 63.8864 201.522 64.8068 200.257 65.4659C199 66.125 197.477 66.4545 195.689 66.4545H189.837V62.5114H194.893C195.84 62.5114 196.621 62.3485 197.234 62.0227C197.856 61.6894 198.318 61.2311 198.621 60.6477C198.931 60.0568 199.087 59.3788 199.087 58.6136C199.087 57.8409 198.931 57.1667 198.621 56.5909C198.318 56.0076 197.856 55.5568 197.234 55.2386C196.613 54.9129 195.825 54.75 194.871 54.75H191.553V74H186.632ZM207.26 74V56.5455H211.953V59.5909H212.135C212.453 58.5076 212.987 57.6894 213.737 57.1364C214.487 56.5758 215.351 56.2955 216.328 56.2955C216.571 56.2955 216.832 56.3106 217.112 56.3409C217.393 56.3712 217.639 56.4129 217.851 56.4659V60.7614C217.624 60.6932 217.309 60.6326 216.908 60.5795C216.506 60.5265 216.139 60.5 215.805 60.5C215.093 60.5 214.457 60.6553 213.896 60.9659C213.343 61.2689 212.904 61.6932 212.578 62.2386C212.26 62.7841 212.101 63.4129 212.101 64.125V74H207.26ZM227.428 74.3409C225.662 74.3409 224.136 73.9659 222.848 73.2159C221.568 72.4583 220.579 71.4053 219.882 70.0568C219.185 68.7008 218.837 67.1288 218.837 65.3409C218.837 63.5379 219.185 61.9621 219.882 60.6136C220.579 59.2576 221.568 58.2045 222.848 57.4545C224.136 56.697 225.662 56.3182 227.428 56.3182C229.193 56.3182 230.715 56.697 231.996 57.4545C233.284 58.2045 234.276 59.2576 234.973 60.6136C235.67 61.9621 236.018 63.5379 236.018 65.3409C236.018 67.1288 235.67 68.7008 234.973 70.0568C234.276 71.4053 233.284 72.4583 231.996 73.2159C230.715 73.9659 229.193 74.3409 227.428 74.3409ZM227.45 70.5909C228.253 70.5909 228.924 70.3636 229.462 69.9091C230 69.447 230.405 68.8182 230.678 68.0227C230.958 67.2273 231.098 66.322 231.098 65.3068C231.098 64.2917 230.958 63.3864 230.678 62.5909C230.405 61.7955 230 61.1667 229.462 60.7045C228.924 60.2424 228.253 60.0114 227.45 60.0114C226.64 60.0114 225.958 60.2424 225.405 60.7045C224.859 61.1667 224.446 61.7955 224.166 62.5909C223.893 63.3864 223.757 64.2917 223.757 65.3068C223.757 66.322 223.893 67.2273 224.166 68.0227C224.446 68.8182 224.859 69.447 225.405 69.9091C225.958 70.3636 226.64 70.5909 227.45 70.5909ZM248.45 56.5455V60.1818H237.939V56.5455H248.45ZM240.325 52.3636H245.166V68.6364C245.166 69.0833 245.234 69.4318 245.371 69.6818C245.507 69.9242 245.696 70.0947 245.939 70.1932C246.189 70.2917 246.477 70.3409 246.803 70.3409C247.03 70.3409 247.257 70.322 247.484 70.2841C247.712 70.2386 247.886 70.2045 248.007 70.1818L248.768 73.7841C248.526 73.8598 248.185 73.947 247.746 74.0455C247.306 74.1515 246.772 74.2159 246.143 74.2386C244.977 74.2841 243.954 74.1288 243.075 73.7727C242.204 73.4167 241.526 72.8636 241.041 72.1136C240.556 71.3636 240.318 70.4167 240.325 69.2727V52.3636ZM259.303 74.3409C257.537 74.3409 256.011 73.9659 254.723 73.2159C253.443 72.4583 252.454 71.4053 251.757 70.0568C251.06 68.7008 250.712 67.1288 250.712 65.3409C250.712 63.5379 251.06 61.9621 251.757 60.6136C252.454 59.2576 253.443 58.2045 254.723 57.4545C256.011 56.697 257.537 56.3182 259.303 56.3182C261.068 56.3182 262.59 56.697 263.871 57.4545C265.159 58.2045 266.151 59.2576 266.848 60.6136C267.545 61.9621 267.893 63.5379 267.893 65.3409C267.893 67.1288 267.545 68.7008 266.848 70.0568C266.151 71.4053 265.159 72.4583 263.871 73.2159C262.59 73.9659 261.068 74.3409 259.303 74.3409ZM259.325 70.5909C260.128 70.5909 260.799 70.3636 261.337 69.9091C261.875 69.447 262.28 68.8182 262.553 68.0227C262.833 67.2273 262.973 66.322 262.973 65.3068C262.973 64.2917 262.833 63.3864 262.553 62.5909C262.28 61.7955 261.875 61.1667 261.337 60.7045C260.799 60.2424 260.128 60.0114 259.325 60.0114C258.515 60.0114 257.833 60.2424 257.28 60.7045C256.734 61.1667 256.321 61.7955 256.041 62.5909C255.768 63.3864 255.632 64.2917 255.632 65.3068C255.632 66.322 255.768 67.2273 256.041 68.0227C256.321 68.8182 256.734 69.447 257.28 69.9091C257.833 70.3636 258.515 70.5909 259.325 70.5909ZM280.325 56.5455V60.1818H269.814V56.5455H280.325ZM272.2 52.3636H277.041V68.6364C277.041 69.0833 277.109 69.4318 277.246 69.6818C277.382 69.9242 277.571 70.0947 277.814 70.1932C278.064 70.2917 278.352 70.3409 278.678 70.3409C278.905 70.3409 279.132 70.322 279.359 70.2841C279.587 70.2386 279.761 70.2045 279.882 70.1818L280.643 73.7841C280.401 73.8598 280.06 73.947 279.621 74.0455C279.181 74.1515 278.647 74.2159 278.018 74.2386C276.852 74.2841 275.829 74.1288 274.95 73.7727C274.079 73.4167 273.401 72.8636 272.916 72.1136C272.431 71.3636 272.193 70.4167 272.2 69.2727V52.3636ZM286.467 80.5455C285.854 80.5455 285.278 80.4962 284.74 80.3977C284.21 80.3068 283.77 80.1894 283.422 80.0455L284.513 76.4318C285.081 76.6061 285.592 76.7008 286.047 76.7159C286.509 76.7311 286.907 76.625 287.24 76.3977C287.581 76.1705 287.857 75.7841 288.07 75.2386L288.354 74.5L282.092 56.5455H287.183L290.797 69.3636H290.979L294.626 56.5455H299.751L292.967 75.8864C292.642 76.8258 292.198 77.6439 291.638 78.3409C291.085 79.0455 290.384 79.5871 289.536 79.9659C288.687 80.3523 287.664 80.5455 286.467 80.5455ZM302.229 80.5455V56.5455H307.001V59.4773H307.217C307.429 59.0076 307.736 58.5303 308.138 58.0455C308.547 57.553 309.077 57.1439 309.729 56.8182C310.388 56.4848 311.206 56.3182 312.183 56.3182C313.456 56.3182 314.63 56.6515 315.706 57.3182C316.782 57.9773 317.642 58.9735 318.286 60.3068C318.929 61.6326 319.251 63.2955 319.251 65.2955C319.251 67.2424 318.937 68.8864 318.308 70.2273C317.687 71.5606 316.839 72.572 315.763 73.2614C314.695 73.9432 313.498 74.2841 312.172 74.2841C311.232 74.2841 310.433 74.1288 309.774 73.8182C309.123 73.5076 308.589 73.1174 308.172 72.6477C307.755 72.1705 307.437 71.6894 307.217 71.2045H307.07V80.5455H302.229ZM306.967 65.2727C306.967 66.3106 307.111 67.2159 307.399 67.9886C307.687 68.7614 308.104 69.3636 308.649 69.7955C309.195 70.2197 309.857 70.4318 310.638 70.4318C311.426 70.4318 312.092 70.2159 312.638 69.7841C313.183 69.3447 313.596 68.7386 313.876 67.9659C314.164 67.1856 314.308 66.2879 314.308 65.2727C314.308 64.2652 314.168 63.3788 313.888 62.6136C313.607 61.8485 313.195 61.25 312.649 60.8182C312.104 60.3864 311.433 60.1705 310.638 60.1705C309.85 60.1705 309.183 60.3788 308.638 60.7955C308.1 61.2121 307.687 61.803 307.399 62.5682C307.111 63.3333 306.967 64.2348 306.967 65.2727ZM330.433 74.3409C328.638 74.3409 327.092 73.9773 325.797 73.25C324.509 72.5152 323.517 71.4773 322.82 70.1364C322.123 68.7879 321.774 67.1932 321.774 65.3523C321.774 63.5568 322.123 61.9811 322.82 60.625C323.517 59.2689 324.498 58.2121 325.763 57.4545C327.036 56.697 328.528 56.3182 330.24 56.3182C331.392 56.3182 332.464 56.5038 333.456 56.875C334.456 57.2386 335.327 57.7879 336.07 58.5227C336.82 59.2576 337.403 60.1818 337.82 61.2955C338.236 62.4015 338.445 63.697 338.445 65.1818V66.5114H323.706V63.5114H333.888C333.888 62.8144 333.736 62.197 333.433 61.6591C333.13 61.1212 332.71 60.7008 332.172 60.3977C331.642 60.0871 331.024 59.9318 330.32 59.9318C329.585 59.9318 328.933 60.1023 328.365 60.4432C327.804 60.7765 327.365 61.2273 327.047 61.7955C326.729 62.3561 326.566 62.9811 326.558 63.6705V66.5227C326.558 67.3864 326.717 68.1326 327.036 68.7614C327.361 69.3902 327.82 69.875 328.411 70.2159C329.001 70.5568 329.702 70.7273 330.513 70.7273C331.051 70.7273 331.543 70.6515 331.99 70.5C332.437 70.3485 332.82 70.1212 333.138 69.8182C333.456 69.5152 333.698 69.1439 333.865 68.7045L338.342 69C338.115 70.0758 337.649 71.0152 336.945 71.8182C336.248 72.6136 335.346 73.2348 334.24 73.6818C333.142 74.1212 331.873 74.3409 330.433 74.3409Z" fill="#6A6A6A"/>
<path d="M54 62.5C54 59.9804 55.0009 57.5641 56.7825 55.7825C58.5641 54.0009 60.9804 53 63.5 53C66.0196 53 68.4359 54.0009 70.2175 55.7825C71.9991 57.5641 73 59.9804 73 62.5C73 65.0196 71.9991 67.4359 70.2175 69.2175C68.4359 70.9991 66.0196 72 63.5 72C60.9804 72 58.5641 70.9991 56.7825 69.2175C55.0009 67.4359 54 65.0196 54 62.5V62.5Z" fill="#1ABCFE"/>
<path d="M35 81.5C35 78.9804 36.0009 76.5641 37.7825 74.7825C39.5641 73.0009 41.9804 72 44.5 72H54V81.5C54 84.0196 52.9991 86.4359 51.2175 88.2175C49.4359 89.9991 47.0196 91 44.5 91C41.9804 91 39.5641 89.9991 37.7825 88.2175C36.0009 86.4359 35 84.0196 35 81.5V81.5Z" fill="#0ACF83"/>
<path d="M54 34V53H63.5C66.0196 53 68.4359 51.9991 70.2175 50.2175C71.9991 48.4359 73 46.0196 73 43.5C73 40.9804 71.9991 38.5641 70.2175 36.7825C68.4359 35.0009 66.0196 34 63.5 34H54Z" fill="#FF7262"/>
<path d="M35 43.5C35 46.0196 36.0009 48.4359 37.7825 50.2175C39.5641 51.9991 41.9804 53 44.5 53H54V34H44.5C41.9804 34 39.5641 35.0009 37.7825 36.7825C36.0009 38.5641 35 40.9804 35 43.5V43.5Z" fill="#F24E1E"/>
<path d="M35 62.5C35 65.0196 36.0009 67.4359 37.7825 69.2175C39.5641 70.9991 41.9804 72 44.5 72H54V53H44.5C41.9804 53 39.5641 54.0009 37.7825 55.7825C36.0009 57.5641 35 59.9804 35 62.5V62.5Z" fill="#A259FF"/>
</g>
<defs>
<linearGradient id="paint0_linear_503_767" x1="187.5" y1="0" x2="187.5" y2="125" gradientUnits="userSpaceOnUse">
<stop stop-color="white"/>
<stop offset="1" stop-color="#B7B7B7"/>
</linearGradient>
<clipPath id="clip0_503_767">
<rect width="375" height="125" fill="white"/>
</clipPath>
</defs>
</svg>
